<?xml version="1.0" encoding="iso-8859-1"?>
<!-- Generator: Adobe Illustrator 16.0.0, SVG Export Plug-In . SVG Version: 6.00 Build 0)  -->
<!DOCTYPE svg PUBLIC "-//W3C//DTD SVG 1.1//EN" "http://www.w3.org/Graphics/SVG/1.1/DTD/svg11.dtd">
<svg version="1.1" id="Layer_1" xmlns="http://www.w3.org/2000/svg" xmlns:xlink="http://www.w3.org/1999/xlink" x="0px" y="0px"
	 width="81.55px" height="25px" viewBox="0 0 81.55 25" style="enable-background:new 0 0 81.55 25;" xml:space="preserve">
<g>
	<path style="fill:#29ABE2;" d="M24.53,15c-7.5,0-5-15-12.5-15s-5,15-12.5,15H-25v10h24.53c7.5,0,5-15,12.5-15s5,15,12.5,15H50V15
		H24.53z"/>
	<g>
		<path d="M42.032,15.317l0.362,0.077l-1.274,4.043H29.585v-0.406h0.56c0.63,0,1.081-0.205,1.351-0.615
			c0.154-0.234,0.231-0.776,0.231-1.627V7.177c0-0.93-0.103-1.513-0.308-1.747c-0.286-0.322-0.71-0.483-1.274-0.483h-0.56V4.54
			h6.745v0.406c-0.791-0.007-1.346,0.066-1.664,0.22c-0.319,0.154-0.537,0.348-0.654,0.583s-0.176,0.794-0.176,1.681v9.36
			c0,0.608,0.059,1.026,0.176,1.253c0.088,0.153,0.223,0.268,0.407,0.341c0.183,0.073,0.754,0.109,1.714,0.109h1.087
			c1.143,0,1.945-0.084,2.406-0.252c0.462-0.169,0.883-0.467,1.264-0.896S41.651,16.24,42.032,15.317z"/>
		<path d="M49.283,17.987c-1.033,0.798-1.681,1.26-1.944,1.384c-0.396,0.184-0.817,0.275-1.264,0.275
			c-0.696,0-1.269-0.238-1.72-0.715c-0.45-0.476-0.675-1.102-0.675-1.879c0-0.49,0.11-0.915,0.33-1.273
			c0.3-0.498,0.822-0.967,1.565-1.406s1.979-0.975,3.708-1.604v-0.396c0-1.003-0.159-1.692-0.478-2.065
			c-0.319-0.374-0.782-0.56-1.39-0.56c-0.461,0-0.828,0.125-1.099,0.374c-0.278,0.249-0.417,0.535-0.417,0.857l0.022,0.637
			c0,0.337-0.086,0.597-0.258,0.78s-0.397,0.275-0.676,0.275c-0.271,0-0.492-0.095-0.664-0.286c-0.173-0.19-0.259-0.451-0.259-0.78
			c0-0.63,0.322-1.208,0.967-1.736s1.549-0.791,2.714-0.791c0.894,0,1.626,0.15,2.197,0.451c0.432,0.227,0.751,0.582,0.956,1.065
			c0.132,0.315,0.197,0.959,0.197,1.934v3.417c0,0.96,0.019,1.548,0.055,1.764s0.097,0.361,0.181,0.434
			c0.084,0.074,0.182,0.11,0.291,0.11c0.117,0,0.22-0.026,0.308-0.077c0.154-0.095,0.451-0.362,0.89-0.802v0.615
			c-0.82,1.099-1.604,1.647-2.351,1.647c-0.359,0-0.645-0.124-0.857-0.373S49.291,18.588,49.283,17.987z M49.283,17.273v-3.834
			c-1.106,0.439-1.82,0.75-2.143,0.934c-0.578,0.322-0.992,0.658-1.241,1.01s-0.374,0.736-0.374,1.154
			c0,0.527,0.158,0.965,0.472,1.313c0.315,0.348,0.678,0.521,1.088,0.521C47.643,18.371,48.375,18.006,49.283,17.273z"/>
		<path d="M62.39,9.374v6.097c0,1.165,0.028,1.877,0.083,2.138c0.055,0.26,0.143,0.44,0.264,0.544
			c0.121,0.103,0.262,0.153,0.423,0.153c0.227,0,0.483-0.062,0.769-0.187l0.154,0.385l-3.011,1.241h-0.494v-2.132
			c-0.864,0.938-1.523,1.527-1.978,1.77c-0.454,0.241-0.934,0.362-1.439,0.362c-0.563,0-1.053-0.163-1.466-0.489
			c-0.414-0.326-0.702-0.745-0.863-1.258s-0.241-1.237-0.241-2.176V11.33c0-0.476-0.052-0.806-0.154-0.989s-0.254-0.324-0.456-0.423
			c-0.202-0.099-0.566-0.145-1.093-0.138V9.374h3.526v6.734c0,0.938,0.163,1.553,0.489,1.846c0.326,0.293,0.72,0.439,1.181,0.439
			c0.315,0,0.672-0.099,1.071-0.296c0.399-0.198,0.874-0.576,1.423-1.133v-5.701c0-0.571-0.104-0.958-0.313-1.159
			c-0.209-0.201-0.643-0.31-1.302-0.324V9.374H62.39z"/>
		<path d="M67.762,9.077v2.263c0.842-1.509,1.707-2.263,2.593-2.263c0.403,0,0.736,0.123,1,0.368
			c0.264,0.246,0.396,0.529,0.396,0.852c0,0.286-0.095,0.527-0.285,0.725s-0.418,0.296-0.682,0.296
			c-0.256,0-0.543-0.126-0.862-0.379c-0.318-0.253-0.555-0.379-0.708-0.379c-0.132,0-0.275,0.073-0.428,0.22
			c-0.33,0.3-0.67,0.795-1.022,1.483v4.823c0,0.557,0.07,0.979,0.208,1.264c0.096,0.197,0.264,0.363,0.506,0.494
			c0.241,0.133,0.589,0.198,1.043,0.198v0.396h-5.153v-0.396c0.513,0,0.894-0.081,1.143-0.241c0.184-0.117,0.312-0.305,0.385-0.561
			c0.037-0.125,0.055-0.48,0.055-1.066v-3.9c0-1.171-0.023-1.869-0.071-2.092c-0.048-0.223-0.136-0.386-0.264-0.489
			s-0.287-0.154-0.478-0.154c-0.228,0-0.483,0.055-0.77,0.165l-0.109-0.396l3.043-1.23H67.762z"/>
		<path d="M78.013,17.987c-1.033,0.798-1.681,1.26-1.945,1.384c-0.396,0.184-0.817,0.275-1.263,0.275
			c-0.696,0-1.269-0.238-1.72-0.715c-0.45-0.476-0.676-1.102-0.676-1.879c0-0.49,0.11-0.915,0.33-1.273
			c0.3-0.498,0.822-0.967,1.565-1.406c0.743-0.439,1.979-0.975,3.708-1.604v-0.396c0-1.003-0.16-1.692-0.478-2.065
			c-0.319-0.374-0.782-0.56-1.39-0.56c-0.461,0-0.827,0.125-1.099,0.374c-0.278,0.249-0.417,0.535-0.417,0.857l0.021,0.637
			c0,0.337-0.086,0.597-0.258,0.78c-0.172,0.183-0.397,0.275-0.676,0.275c-0.271,0-0.493-0.095-0.665-0.286
			c-0.172-0.19-0.258-0.451-0.258-0.78c0-0.63,0.322-1.208,0.967-1.736s1.549-0.791,2.714-0.791c0.894,0,1.626,0.15,2.197,0.451
			c0.432,0.227,0.75,0.582,0.955,1.065c0.133,0.315,0.198,0.959,0.198,1.934v3.417c0,0.96,0.019,1.548,0.055,1.764
			c0.037,0.216,0.097,0.361,0.182,0.434c0.084,0.074,0.181,0.11,0.291,0.11c0.117,0,0.22-0.026,0.308-0.077
			c0.154-0.095,0.45-0.362,0.89-0.802v0.615c-0.82,1.099-1.604,1.647-2.351,1.647c-0.359,0-0.645-0.124-0.857-0.373
			C78.13,19.013,78.02,18.588,78.013,17.987z M78.013,17.273v-3.834c-1.106,0.439-1.82,0.75-2.143,0.934
			c-0.579,0.322-0.992,0.658-1.241,1.01s-0.374,0.736-0.374,1.154c0,0.527,0.158,0.965,0.473,1.313s0.678,0.521,1.088,0.521
			C76.372,18.371,77.104,18.006,78.013,17.273z"/>
	</g>
</g>
</svg>
